<mxfile host="app.diagrams.net" modified="2023-01-28T13:48:34.530Z" agent="5.0 (Macintosh; Intel Mac OS X 10_15_7) AppleWebKit/537.36 (KHTML, like Gecko) Chrome/109.0.0.0 Safari/537.36" version="20.8.3" etag="c2UhOWCwjsvQdrJXx8Sg" type="github">
  <diagram id="cJuy4rX8pp-478NlME3G" name="第 1 页">
    <mxGraphModel dx="1242" dy="742" grid="1" gridSize="10" guides="1" tooltips="1" connect="1" arrows="1" fold="1" page="1" pageScale="1" pageWidth="827" pageHeight="1169" math="0" shadow="0">
      <root>
        <mxCell id="0" />
        <mxCell id="1" parent="0" />
        <mxCell id="cF7I4DhwhSZbUbIOP7T6-1" value="" style="rounded=1;whiteSpace=wrap;html=1;dashed=1;fillColor=#fff2cc;strokeColor=#d6b656;" vertex="1" parent="1">
          <mxGeometry x="146.5" y="270" width="417" height="78" as="geometry" />
        </mxCell>
        <mxCell id="cF7I4DhwhSZbUbIOP7T6-3" value="apiserver" style="text;html=1;align=center;verticalAlign=middle;resizable=0;points=[];autosize=1;strokeColor=default;fillColor=none;fontFamily=source code pro;" vertex="1" parent="1">
          <mxGeometry x="320.5" y="296" width="83" height="26" as="geometry" />
        </mxCell>
        <mxCell id="cF7I4DhwhSZbUbIOP7T6-4" value="" style="rounded=0;whiteSpace=wrap;html=1;dashed=1;fontFamily=source code pro;dashPattern=1 4;" vertex="1" parent="1">
          <mxGeometry x="133" y="380" width="567" height="310" as="geometry" />
        </mxCell>
        <mxCell id="cF7I4DhwhSZbUbIOP7T6-6" value="操作系统内核" style="rounded=1;whiteSpace=wrap;html=1;dashed=1;fillColor=#60a917;strokeColor=#2D7600;fontColor=#ffffff;" vertex="1" parent="1">
          <mxGeometry x="146.5" y="630" width="390" height="48" as="geometry" />
        </mxCell>
        <mxCell id="cF7I4DhwhSZbUbIOP7T6-7" value="" style="sketch=0;html=1;dashed=0;whitespace=wrap;fillColor=#2875E2;strokeColor=#ffffff;points=[[0.005,0.63,0],[0.1,0.2,0],[0.9,0.2,0],[0.5,0,0],[0.995,0.63,0],[0.72,0.99,0],[0.5,1,0],[0.28,0.99,0]];verticalLabelPosition=bottom;align=center;verticalAlign=top;shape=mxgraph.kubernetes.icon;prIcon=kubelet;fontFamily=source code pro;" vertex="1" parent="1">
          <mxGeometry x="30" y="440" width="50" height="48" as="geometry" />
        </mxCell>
        <mxCell id="cF7I4DhwhSZbUbIOP7T6-8" value="" style="sketch=0;html=1;dashed=0;whitespace=wrap;fillColor=#2875E2;strokeColor=#ffffff;points=[[0.005,0.63,0],[0.1,0.2,0],[0.9,0.2,0],[0.5,0,0],[0.995,0.63,0],[0.72,0.99,0],[0.5,1,0],[0.28,0.99,0]];verticalLabelPosition=bottom;align=center;verticalAlign=top;shape=mxgraph.kubernetes.icon;prIcon=master;fontFamily=source code pro;" vertex="1" parent="1">
          <mxGeometry x="50" y="561" width="50" height="48" as="geometry" />
        </mxCell>
        <mxCell id="cF7I4DhwhSZbUbIOP7T6-9" value="" style="rounded=1;whiteSpace=wrap;html=1;dashed=1;fillColor=#fff2cc;strokeColor=#d6b656;" vertex="1" parent="1">
          <mxGeometry x="320" y="457" width="70" height="163" as="geometry" />
        </mxCell>
        <mxCell id="cF7I4DhwhSZbUbIOP7T6-10" value="" style="rounded=1;whiteSpace=wrap;html=1;dashed=1;fillColor=#fff2cc;strokeColor=#d6b656;" vertex="1" parent="1">
          <mxGeometry x="414" y="457" width="106" height="163" as="geometry" />
        </mxCell>
        <mxCell id="cF7I4DhwhSZbUbIOP7T6-12" value="" style="rounded=1;whiteSpace=wrap;html=1;dashed=1;fillColor=#fff2cc;strokeColor=#d6b656;" vertex="1" parent="1">
          <mxGeometry x="147" y="516" width="153" height="110" as="geometry" />
        </mxCell>
        <mxCell id="cF7I4DhwhSZbUbIOP7T6-13" value="" style="rounded=1;whiteSpace=wrap;html=1;dashed=1;fillColor=#fff2cc;strokeColor=#d6b656;" vertex="1" parent="1">
          <mxGeometry x="147" y="420" width="133" height="83" as="geometry" />
        </mxCell>
        <mxCell id="cF7I4DhwhSZbUbIOP7T6-14" value="kubelet" style="text;html=1;align=center;verticalAlign=middle;resizable=0;points=[];autosize=1;strokeColor=default;fillColor=none;fontFamily=source code pro;" vertex="1" parent="1">
          <mxGeometry x="320.5" y="486" width="70" height="30" as="geometry" />
        </mxCell>
        <mxCell id="cF7I4DhwhSZbUbIOP7T6-15" value="docker" style="text;html=1;align=center;verticalAlign=middle;resizable=0;points=[];autosize=1;strokeColor=default;fillColor=none;fontFamily=source code pro;" vertex="1" parent="1">
          <mxGeometry x="320.5" y="540" width="70" height="30" as="geometry" />
        </mxCell>
        <mxCell id="cF7I4DhwhSZbUbIOP7T6-16" value="runc" style="text;html=1;align=center;verticalAlign=middle;resizable=0;points=[];autosize=1;strokeColor=default;fillColor=none;fontFamily=source code pro;" vertex="1" parent="1">
          <mxGeometry x="330.5" y="585" width="50" height="30" as="geometry" />
        </mxCell>
        <mxCell id="cF7I4DhwhSZbUbIOP7T6-17" value="业务Pod" style="text;html=1;align=center;verticalAlign=middle;resizable=0;points=[];autosize=1;strokeColor=default;fillColor=none;fontFamily=source code pro;" vertex="1" parent="1">
          <mxGeometry x="432" y="531" width="70" height="30" as="geometry" />
        </mxCell>
        <mxCell id="cF7I4DhwhSZbUbIOP7T6-18" value="日志" style="text;html=1;align=center;verticalAlign=middle;resizable=0;points=[];autosize=1;strokeColor=default;fillColor=none;fontFamily=source code pro;" vertex="1" parent="1">
          <mxGeometry x="170.5" y="533" width="50" height="30" as="geometry" />
        </mxCell>
        <mxCell id="cF7I4DhwhSZbUbIOP7T6-19" value="网络" style="text;html=1;align=center;verticalAlign=middle;resizable=0;points=[];autosize=1;strokeColor=default;fillColor=none;fontFamily=source code pro;" vertex="1" parent="1">
          <mxGeometry x="236" y="533" width="50" height="30" as="geometry" />
        </mxCell>
        <mxCell id="cF7I4DhwhSZbUbIOP7T6-20" value="监控" style="text;html=1;align=center;verticalAlign=middle;resizable=0;points=[];autosize=1;strokeColor=default;fillColor=none;fontFamily=source code pro;" vertex="1" parent="1">
          <mxGeometry x="170.5" y="583" width="50" height="30" as="geometry" />
        </mxCell>
        <mxCell id="cF7I4DhwhSZbUbIOP7T6-21" value="安全" style="text;html=1;align=center;verticalAlign=middle;resizable=0;points=[];autosize=1;strokeColor=default;fillColor=none;fontFamily=source code pro;" vertex="1" parent="1">
          <mxGeometry x="236" y="583" width="50" height="30" as="geometry" />
        </mxCell>
        <mxCell id="cF7I4DhwhSZbUbIOP7T6-22" value="运维组件" style="text;html=1;align=center;verticalAlign=middle;resizable=0;points=[];autosize=1;strokeColor=default;fillColor=none;fontFamily=source code pro;" vertex="1" parent="1">
          <mxGeometry x="180" y="427" width="70" height="30" as="geometry" />
        </mxCell>
        <mxCell id="cF7I4DhwhSZbUbIOP7T6-23" value="非标操作" style="text;html=1;align=center;verticalAlign=middle;resizable=0;points=[];autosize=1;strokeColor=default;fillColor=none;fontFamily=source code pro;" vertex="1" parent="1">
          <mxGeometry x="180" y="470" width="70" height="30" as="geometry" />
        </mxCell>
      </root>
    </mxGraphModel>
  </diagram>
</mxfile>
